<?xml version="1.0" encoding="UTF-8"?> <svg xmlns="http://www.w3.org/2000/svg" id="Layer_1" version="1.1" viewBox="0 0 177.6 125.7" width="178" height="126"><defs><style> .st0 { fill: #26315f; } .st1 { fill: #9babb4; } </style></defs><path class="st0" d="M24.5,43.2c3.4-5,7.2-9.2,10.9-12.7-3.2,1.7-5.9,3.1-6.3,3.2-2.1.9-3.4,1.9-8.9,1.6-4.4-.2-7.1-.8-10.8-2.6-3.2-1.6-7.7-1.8-9.1,2-.7,2-.5,4.2.4,6.1,1.4,2.8,4.4,4.6,7.4,5.3,5.6,1.1,11.1-.9,16.3-3Z"></path><path class="st0" d="M35.7,96.5c-4.1,1.5-8.6,1.8-12.4.3-8.9-3-17.9-15,.9-48.2,13.5-24,37.8-34.5,32.2-26.3-2.3,2.8-2.7,5.8-.9,7.2.9.7,2.1.8,3.2.9,2.8.2,5.6-.5,8.1-1.7,4.8-2.4,9.8-4.6,14.3-7.4,3.7-2.4,8.2-5.2,11.3-1.4,1.6,2,2.3,4.7,2,7.2-.5,3.9-3.2,7.2-6.4,9.2-7.2,4.3-16,3.3-24,3-3.6,0-7.2,0-10.7.6-6,1.1-10.7,4.4-14.5,8.6-16.4,21.2-18.7,48-3.1,47.9Z"></path><path class="st0" d="M44.4,22.5c5-3.7,9.2-5.7,11.3-5.9,3.3-4.6,3.4-10.6,0-14.1-4-4-11.1-3.3-15.9,1.5-4.8,4.8-5.4,11.9-1.5,15.9,1.6,1.6,3.8,2.5,6.1,2.6Z"></path><path class="st1" d="M38.5,54.2c-18,38.6.9,39.9.9,39.9,0,0-11.2-13.9-.9-39.9Z"></path><polygon class="st0" points="40.7 61.8 57.2 61.8 57.2 96.4 65.4 96.4 65.4 61.8 81.8 61.8 81.8 53.6 40.7 53.6 40.7 61.8"></polygon><polygon class="st0" points="86.4 96.4 127.6 96.4 127.6 88.2 94.6 88.2 94.6 79.1 123.4 79.1 123.4 70.9 94.6 70.9 94.6 61.8 127.6 61.8 127.6 53.6 86.4 53.6 86.4 96.4"></polygon><polygon class="st0" points="158.1 74.3 174.3 55 175.4 53.7 175.5 53.6 164.8 53.6 152.6 68 147.3 74.4 140.9 81.9 140.9 53.6 132.7 53.6 132.7 96.4 134.8 96.4 136.7 96.4 139.4 96.4 152.7 80.6 166.6 96.4 177.5 96.4 158.1 74.3"></polygon><g><polygon class="st0" points="13.1 104.8 18.2 104.8 18.2 115.4 20.7 115.4 20.7 104.8 25.8 104.8 25.8 102.2 13.1 102.2 13.1 104.8"></polygon><polygon class="st0" points="26.5 115.4 39.2 115.4 39.2 112.9 29 112.9 29 110.1 37.9 110.1 37.9 107.6 29 107.6 29 104.8 39.2 104.8 39.2 102.3 26.5 102.3 26.5 115.4"></polygon><polygon class="st0" points="47.8 108.6 52.8 102.7 53.1 102.3 53.2 102.2 49.9 102.2 46.1 106.7 44.5 108.7 42.5 111 42.5 102.2 40 102.2 40 115.4 40.6 115.4 41.2 115.4 42 115.4 46.1 110.6 50.4 115.4 53.8 115.4 47.8 108.6"></polygon><polygon class="st0" points="64.5 102.2 64.5 111.1 56.6 102.2 55.8 102.2 55.6 102.2 53.4 102.3 53.8 102.7 55 104.2 55 115.4 57.5 115.4 57.5 107 64.5 114.9 65 115.4 65.9 115.4 66.4 115.4 67.1 115.4 67.1 102.2 64.5 102.2"></polygon><path class="st0" d="M75.1,102.2c-4.1,0-7.3,2.9-7.3,6.6s3.2,6.6,7.3,6.6,7.3-2.9,7.3-6.6-3.2-6.6-7.3-6.6ZM75.1,112.9c-2.7,0-4.8-1.8-4.8-4.1s2.1-4.1,4.8-4.1,4.8,1.8,4.8,4.1-2.1,4.1-4.8,4.1Z"></path><polygon class="st0" points="91 108.6 96.3 102.2 93 102.2 89.3 106.7 87.6 108.7 85.7 111 85.7 102.2 83.2 102.2 83.2 115.4 83.8 115.4 84.4 115.4 85.2 115.4 89.3 110.6 93.6 115.4 96.9 115.4 91 108.6"></polygon><path class="st0" d="M111.9,115.4l-.4-.4-4.3-5c1.8-.3,3.2-1.9,3.2-3.9s-1.8-3.9-3.9-3.9h-8.8v13.2h2.5v-5.3h3.7l4.7,5.3h3.4,0ZM105,107.6h-4.8v-2.8h6.3c.8,0,1.4.6,1.4,1.4s-.6,1.4-1.4,1.4h-1.5Z"></path><polygon class="st0" points="122.5 104.8 127.5 104.8 127.5 115.4 130 115.4 130 104.8 135.1 104.8 135.1 102.2 122.5 102.2 122.5 104.8"></polygon><polygon class="st0" points="138.4 102.2 135.9 102.2 135.9 115.4 148.6 115.4 148.6 112.9 138.4 112.9 138.4 102.2"></polygon><path class="st0" d="M156.7,102.2h-2.8l.8,1.7-5.5,11.5h2.8l1.4-2.9h5.4l1.4,2.9h2.8l-6-12.6-.3-.6ZM154.6,110l1.5-3.1,1.5,3.1h-3Z"></path><path class="st0" d="M119.9,102.2h-2.8l.8,1.7-5.5,11.5h2.8l1.4-2.9h5.4l1.4,2.9h2.8l-6-12.6-.3-.6ZM117.8,110l1.5-3.1,1.5,3.1h-3Z"></path><path class="st0" d="M172.9,110c1.8-.3,3.2-1.9,3.2-3.9s-1.8-3.9-3.9-3.9h-8.8v13.2h2.5v-5.3h3.7l4.7,5.3h3.4l-4.7-5.4ZM170.8,107.6h-4.8v-2.8h6.3c.8,0,1.4.6,1.4,1.4s-.6,1.4-1.4,1.4h-1.5Z"></path></g><path class="st1" d="M138.8,119.4h-3v6.3h3c1.7,0,3.2-1.4,3.2-3.2s-1.4-3.2-3.2-3.2ZM138.8,124.5h-1.8v-4h1.8c1.1,0,2,.9,2,2s-.9,2-2,2Z"></path><polygon class="st1" points="142.5 125.7 148.6 125.7 148.6 124.5 143.7 124.5 143.7 123.1 148 123.1 148 121.9 143.7 121.9 143.7 120.5 148.6 120.5 148.6 119.4 142.5 119.4 142.5 125.7"></polygon><path class="st1" d="M155.4,121.2c0-1-.8-1.9-1.9-1.9h-4.2v6.3h1.2v-2.6h1.8l2.3,2.6h1.6l-2.3-2.6c.9-.1,1.6-.9,1.6-1.9ZM152.8,121.9h-2.4v-1.4h3.1c.4,0,.7.3.7.7s-.3.7-.7.7h-.7Z"></path><polygon class="st1" points="161 123.7 157.1 119.3 156.7 119.3 156.6 119.3 156.6 119.3 155.5 119.4 156.3 120.3 156.3 125.7 157.5 125.7 157.5 121.6 161 125.4 161.2 125.7 161.6 125.7 161.8 125.7 162.1 125.7 162.1 119.3 161 119.3 161 123.7"></polygon><polygon class="st1" points="163.1 125.7 169.2 125.7 169.2 124.5 164.3 124.5 164.3 123.1 168.6 123.1 168.6 121.9 164.3 121.9 164.3 120.5 169.2 120.5 169.2 119.4 163.1 119.4 163.1 125.7"></polygon><g><rect class="st1" x="176.5" y="119.3" width="1.2" height=".8"></rect><rect class="st1" x="176.5" y="120.7" width="1.2" height="5"></rect></g><g><path class="st1" d="M173,120.5c.7,0,1.4.3,1.8.7l.7.7h0v-1.6h-.2c-.6-.7-1.5-1-2.4-1h0c-.9,0-1.8.3-2.5.9-.7.6-1,1.4-1,2.3,0,1.8,1.5,3.2,3.5,3.2s1,0,1.4-.3v.2h1.2v-3.4h0s-3.1,0-3.1,0v1.3h1.9v.7c-.4.2-.9.4-1.4.4-1.3,0-2.3-.9-2.3-2s1-2,2.3-2Z"></path><rect class="st1" x="171.5" y="118.2" width="2.8" height=".8"></rect></g></svg> 